<svg width="36" height="43" viewBox="0 0 36 43" fill="none" xmlns="http://www.w3.org/2000/svg">
<path d="M11.5 5.4091C13.5024 4.57983 15.6978 4.12219 18 4.12219C22.6838 4.12219 26.9253 6.01642 30 9.0806C33.0886 12.1586 35 16.4172 35 21.1222C35 23.1434 34.6473 25.0822 34 26.8804M2.5 14.1299C1.53638 16.2626 1 18.6298 1 21.1222C1 25.8272 2.91138 30.0858 6 33.1638C9.07474 36.228 13.3162 38.1222 18 38.1222C20.4924 38.1222 22.8596 37.5858 24.9923 36.6222" stroke="#52586F" stroke-width="1.8" stroke-linecap="round" stroke-linejoin="round"/>
<path fill-rule="evenodd" clip-rule="evenodd" d="M9.78672 1.58303C9.98034 1.02988 10.606 0.761043 11.1405 1.00131L11.2039 1.02979C11.6766 1.24226 11.9087 1.7807 11.7385 2.27024L10.4943 5.84937L13.9505 7.4028C14.4232 7.61528 14.6552 8.15371 14.4851 8.64325L14.4622 8.70888C14.2698 9.26245 13.6447 9.53263 13.1097 9.29351L8.7421 7.34165C8.26742 7.12952 8.03448 6.58903 8.20625 6.0983L9.78672 1.58303Z" fill="#52586F"/>
<path fill-rule="evenodd" clip-rule="evenodd" d="M25.4483 41.0061C25.1767 41.5254 24.5188 41.701 24.0246 41.3859L23.966 41.3486C23.529 41.07 23.3773 40.5037 23.6164 40.0439L25.3651 36.6823L22.1699 34.6454C21.7329 34.3668 21.5811 33.8005 21.8203 33.3407L21.8524 33.279C22.1228 32.7591 22.7804 32.5822 23.2753 32.8962L27.3147 35.4591C27.7537 35.7376 27.906 36.3061 27.6651 36.7668L25.4483 41.0061Z" fill="#52586F"/>
</svg>
