<svg width="26" height="25" viewBox="0 0 26 25" fill="none" xmlns="http://www.w3.org/2000/svg">
<path fill-rule="evenodd" clip-rule="evenodd" d="M12.7004 0.0696075C11.6341 -0.218392 10.5396 0.41351 10.2558 1.481L9.32031 5H15.9982C17.1027 5 17.9982 5.89543 17.9982 7V20.4653L19.8117 20.9551C20.8781 21.2431 21.9726 20.6112 22.2564 19.5437L25.9326 5.71495C26.2164 4.64745 25.582 3.54861 24.5156 3.26061L12.7004 0.0696075Z" fill="#F3B233"/>
<path fill-rule="evenodd" clip-rule="evenodd" d="M2 6.68164C0.895431 6.68164 0 7.57707 0 8.68164V23.0003C0 24.1049 0.895432 25.0003 2 25.0003H14.2298C15.3344 25.0003 16.2298 24.1049 16.2298 23.0003V8.68164C16.2298 7.57707 15.3344 6.68164 14.2298 6.68164H2ZM4.50597 15.2373C4.24141 15.5956 4.24141 16.0883 4.50597 16.4467L7.32329 20.2626C7.72013 20.8001 8.51382 20.8001 8.91067 20.2626L11.728 16.4467C11.9925 16.0883 11.9925 15.5956 11.728 15.2373L8.91067 11.4214C8.51382 10.8839 7.72013 10.8839 7.32328 11.4214L4.50597 15.2373Z" fill="#F3B233"/>
</svg>
