<svg width="16" height="13" viewBox="0 0 16 13" fill="none" xmlns="http://www.w3.org/2000/svg">
<path fill-rule="evenodd" clip-rule="evenodd" d="M1.26758 1C1.61339 0.402199 2.25973 0 3.00001 0H13C13.7403 0 14.3866 0.402199 14.7324 1H1.26758ZM15 2H1C0.447715 2 0 2.44772 0 3V12C0 12.5523 0.447715 13 1 13H15C15.5523 13 16 12.5523 16 12V10H11.5C10.1193 10 9 8.88071 9 7.5C9 6.11929 10.1193 5 11.5 5H16V3C16 2.44772 15.5523 2 15 2ZM11.5 6H16V9H11.5C10.6716 9 10 8.32843 10 7.5C10 6.67157 10.6716 6 11.5 6ZM11.5 8C11.7761 8 12 7.77614 12 7.5C12 7.22386 11.7761 7 11.5 7C11.2239 7 11 7.22386 11 7.5C11 7.77614 11.2239 8 11.5 8Z" fill="#F3B233"/>
</svg>
