<svg width="45" height="39" viewBox="0 0 45 39" fill="none" xmlns="http://www.w3.org/2000/svg">
<circle cx="16.002" cy="23" r="15.1" stroke="#52586F" stroke-width="1.8"/>
<circle cx="16.0018" cy="23" r="7.63333" stroke="#52586F" stroke-width="1.8"/>
<path d="M40.9609 22.9606L40.9492 23.8605L40.9609 22.9606ZM21.0998 9C21.0998 9.49706 21.5027 9.9 21.9998 9.9C22.4968 9.9 22.8998 9.49706 22.8998 9H21.0998ZM24.9998 1.9H40.9998V0.1H24.9998V1.9ZM43.0998 4V19.9609H44.8998V4H43.0998ZM40.9725 22.0607L30.3856 21.9234L30.3622 23.7233L40.9492 23.8605L40.9725 22.0607ZM22.8998 9V6H21.0998V9H22.8998ZM22.8998 6V4H21.0998V6H22.8998ZM43.0998 19.9609C43.0998 21.1313 42.1429 22.0759 40.9725 22.0607L40.9492 23.8605C43.1227 23.8887 44.8998 22.1345 44.8998 19.9609H43.0998ZM40.9998 1.9C42.1596 1.9 43.0998 2.8402 43.0998 4H44.8998C44.8998 1.84609 43.1537 0.1 40.9998 0.1V1.9ZM24.9998 0.1C22.8458 0.1 21.0998 1.84609 21.0998 4H22.8998C22.8998 2.8402 23.84 1.9 24.9998 1.9V0.1Z" fill="#52586F"/>
<circle cx="37.9998" cy="7" r="2" fill="#52586F"/>
<circle cx="37.9998" cy="16" r="2" fill="#52586F"/>
<circle cx="27.9998" cy="7" r="2" fill="#52586F"/>
<path d="M16.002 30.1053L16.002 38M16.002 8V15.8947" stroke="#52586F" stroke-width="1.8"/>
<path d="M8.89669 23L1.00195 23M31.002 23L23.1072 23" stroke="#52586F" stroke-width="1.8"/>
<path d="M21.0953 18.1755L26.7521 12.5187M5.2561 34.0147L10.913 28.3579" stroke="#52586F" stroke-width="1.8"/>
<path d="M10.9128 18.1755L5.25591 12.5187M26.752 34.0147L21.0951 28.3579" stroke="#52586F" stroke-width="1.8"/>
</svg>
