<svg width="17" height="16" viewBox="0 0 17 16" fill="none" xmlns="http://www.w3.org/2000/svg">
<path fill-rule="evenodd" clip-rule="evenodd" d="M7.22479 2.50179C6.85114 1.92604 6.35882 1.45102 6.1187 1.30371C5.83553 1.12998 5.40045 1.20395 5.18257 1.60498C4.96468 2.00601 5.12193 2.44338 5.4051 2.6171C5.64522 2.76442 6.27852 2.97997 6.93457 3.03595C7.16982 3.05603 7.36312 3.05107 7.50769 3.03146C7.45139 2.88861 7.35878 2.70824 7.22479 2.50179ZM7.57194 3.26044C7.5718 3.26035 7.57156 3.25782 7.57164 3.25311C7.57212 3.25817 7.57208 3.26053 7.57194 3.26044ZM7.72031 2.97948C7.72411 2.97706 7.72629 2.97601 7.72643 2.9761C7.72657 2.97618 7.72467 2.9774 7.72031 2.97948ZM8.58221 2.60123C8.21775 1.67793 7.28767 0.633172 6.68418 0.262928C5.80194 -0.278333 4.67383 0.0428755 4.16447 0.980366C3.65511 1.91786 3.95738 3.11662 4.83962 3.65788C4.95306 3.72748 5.09169 3.79577 5.24824 3.85996H1C0.447715 3.85996 0 4.30022 0 4.8433V7.07204C0 7.61463 0.446903 8.13233 0.998497 8.13327L0.998465 8.12575L7.99971 8.12558V4.1982L9.00029 4.20246V8.12555L15.9961 8.12537L16 9.04391V8.13327C16.5523 8.13327 17 7.61512 17 7.07204V4.84331C17 4.30022 16.5523 3.85996 16 3.85996H11.918C12.0737 3.79603 12.2115 3.72805 12.3244 3.65878C13.2067 3.11752 13.509 1.91875 12.9996 0.981263C12.4902 0.0437727 11.3621 -0.277435 10.4799 0.263825C9.87659 0.633949 8.94692 1.67815 8.58221 2.60123ZM8.5817 3.81152C8.56933 3.82819 8.55628 3.84433 8.54255 3.85996H8.62072C8.60704 3.84433 8.59403 3.82819 8.5817 3.81152ZM1 13.9969V8.48329L1.00276 9.12517L7.99971 9.12499V15.9969H3C1.89543 15.9969 1 15.1015 1 13.9969ZM9.00029 15.9971V9.12497L16 9.12479V13.9992C16 15.1041 15.1041 15.9996 13.9992 15.9992L9.00029 15.9971ZM11.0454 1.3046C10.8052 1.45192 10.3129 1.92694 9.93927 2.50269C9.80528 2.70914 9.71268 2.8895 9.65637 3.03236C9.80095 3.05197 9.99424 3.05693 10.2295 3.03685C10.8855 2.98087 11.5188 2.76531 11.759 2.618C12.0421 2.44427 12.1994 2.0069 11.9815 1.60588C11.7636 1.20485 11.3285 1.13088 11.0454 1.3046Z" fill="#F3B233"/>
</svg>
