<svg width="22" height="22" viewBox="0 0 22 22" fill="none" xmlns="http://www.w3.org/2000/svg">
<path d="M11 22C17.0751 22 22 17.0751 22 11C22 4.92487 17.0751 0 11 0C4.92488 0 0 4.92487 0 11C0 17.0751 4.92488 22 11 22Z" fill="#F3B233"/>
<line x1="11" y1="14" x2="11" y2="22" stroke="#0E152F" stroke-width="2"/>
<line x1="22" y1="11" x2="14" y2="11" stroke="#0E152F" stroke-width="2"/>
<line x1="8" y1="11" x2="-4.37114e-08" y2="11" stroke="#0E152F" stroke-width="2"/>
<path d="M11 14C12.6569 14 14 12.6569 14 11C14 9.34315 12.6569 8 11 8C9.34315 8 8 9.34315 8 11C8 12.6569 9.34315 14 11 14Z" stroke="#0E152F" stroke-width="1.8"/>
<line x1="11" x2="11" y2="8" stroke="#0E152F" stroke-width="2"/>
<line x1="8.87898" y1="13.1212" x2="3.22213" y2="18.778" stroke="#0E152F" stroke-width="2"/>
<line x1="18.7773" y1="18.7774" x2="13.1204" y2="13.1206" stroke="#0E152F" stroke-width="2"/>
<line x1="8.87883" y1="8.87898" x2="3.22198" y2="3.22213" stroke="#0E152F" stroke-width="2"/>
<line x1="18.7774" y1="3.22273" x2="13.1206" y2="8.87959" stroke="#0E152F" stroke-width="2"/>
</svg>
