<svg width="46" height="23" viewBox="0 0 46 23" fill="none" xmlns="http://www.w3.org/2000/svg">
<path d="M0 2C0 0.89543 0.895431 0 2 0H12C13.1046 0 14 0.895431 14 2V21C14 22.1046 13.1046 23 12 23H2C0.89543 23 0 22.1046 0 21V2Z" fill="#F3B233"/>
<path d="M16 2C16 0.89543 16.8954 0 18 0H28C29.1046 0 30 0.895431 30 2V21C30 22.1046 29.1046 23 28 23H18C16.8954 23 16 22.1046 16 21V2Z" fill="#F3B233"/>
<path d="M32 2C32 0.89543 32.8954 0 34 0H44C45.1046 0 46 0.895431 46 2V21C46 22.1046 45.1046 23 44 23H34C32.8954 23 32 22.1046 32 21V2Z" fill="#F3B233"/>
<path d="M4 8V10.8114H5.54011V9.50857H8.02139L5.3369 16H7.21925L10 9.2V8H4Z" fill="#0E152F"/>
<path d="M20 8V10.8114H21.5401V9.50857H24.0214L21.3369 16H23.2193L26 9.2V8H20Z" fill="#0E152F"/>
<path d="M36 8V10.8114H37.5401V9.50857H40.0214L37.3369 16H39.2193L42 9.2V8H36Z" fill="#0E152F"/>
</svg>
